<svg version="1" xmlns="http://www.w3.org/2000/svg" width="266.667" height="266.667" viewBox="0 0 200.000000 200.000000"><path d="M79.3 67.1c-2.3 1.1-4.8 3-5.6 4.2-.7 1.2-2.9 7.8-4.7 14.7-5.1 19.5-13.5 39-18 41.8-1.9 1.2-2 1-2-3.6 0-5.4-1.2-7.2-5.1-7.2-5.9 0-10.7 7.4-9.4 14.8 1.2 6.8 4.5 9.2 12.9 9.2 11.4 0 21.9-8.1 29.5-22.9 4-7.8 14.1-36.5 15.6-44.4.6-3 .3-4-1.9-6.1-3-3.1-5.8-3.3-11.3-.5zM131.4 69.2c-4 3-8.4 8.1-12.2 14.1l-3 4.8.4-8.5c.4-9.5-.3-10.6-6.6-10.6-10.1 0-17.2 12.6-25.6 44.9-2 7.8-3.4 15.6-3.2 17.8.3 3.5.6 3.9 4 4.7 8.1 2 13.1-2.1 16.7-13.7 1.6-5.4 1.9-5.7 2.5-3.4.6 2.4 1.1 2.7 5 2.7 3.4 0 5.2-.7 7.7-2.8 2.8-2.3 3.2-2.4 2.5-.7-1.5 3.8-1.9 14.4-.6 16 1.8 2.2 9.2 1.9 12.2-.5 3-2.3 6.6-14.2 10.2-34 4.7-26 5-28.9 3-31.1-2.5-2.7-9.1-2.6-13 .3z"/></svg>